<svg width="141" height="34" viewBox="0 0 141 34" fill="none" xmlns="http://www.w3.org/2000/svg">
<g clip-path="url(#clip0_5209_38122)">
<path d="M2.16797 24.0152L13.6935 31V17.532L2.16797 10.546V24.0152ZM25.835 24.0152V10.546L14.3095 17.532V31L25.835 24.0152ZM25.548 9.99883L14.0015 3L2.45497 9.99883L14.0015 16.9977L25.548 9.99883Z" fill="#2F6FED"/>
</g>
<path d="M39.725 10.043C40.5837 9.951 41.3733 9.882 42.094 9.836C42.83 9.77467 43.5123 9.744 44.141 9.744C44.4937 10.894 44.9 12.0977 45.36 13.355C45.82 14.6123 46.303 15.8773 46.809 17.15C47.3303 18.4227 47.8593 19.6493 48.396 20.83C49.1933 19.1127 49.9523 17.3493 50.673 15.54C51.409 13.7307 52.1297 11.8063 52.835 9.767C53.663 9.767 54.4833 9.79 55.296 9.836C56.1087 9.882 56.7987 9.94333 57.366 10.02C57.366 10.8633 57.366 11.8677 57.366 13.033C57.3813 14.183 57.389 15.425 57.389 16.759C57.4043 18.0777 57.4197 19.3963 57.435 20.715C57.4503 22.0337 57.4657 23.2757 57.481 24.441C57.4963 25.6063 57.5193 26.6107 57.55 27.454C57.1973 27.4693 56.768 27.4847 56.262 27.5C55.756 27.5153 55.227 27.523 54.675 27.523C54.123 27.5383 53.6093 27.546 53.134 27.546C53.1953 25.9973 53.2413 24.4487 53.272 22.9C53.3027 21.336 53.3257 19.818 53.341 18.346C53.3717 16.874 53.387 15.5093 53.387 14.252C52.743 16.0613 52.076 17.7863 51.386 19.427C50.7113 21.0677 49.9907 22.6853 49.224 24.28L45.682 24.487C44.808 22.5857 43.9953 20.7687 43.244 19.036C42.4927 17.288 41.8257 15.6627 41.243 14.16L41.749 27.546L39.15 27.454C39.196 26.6413 39.242 25.7137 39.288 24.671C39.334 23.6283 39.3723 22.532 39.403 21.382C39.449 20.232 39.4873 19.0897 39.518 17.955C39.564 16.805 39.6023 15.7163 39.633 14.689C39.6637 13.6463 39.6867 12.7263 39.702 11.929C39.7173 11.1163 39.725 10.4877 39.725 10.043ZM60.549 30.536L60.319 28.374C61.1317 28.328 61.86 28.2207 62.504 28.052C63.1633 27.8987 63.7613 27.6533 64.298 27.316C63.654 26.028 63.0023 24.6557 62.343 23.199C61.6837 21.7423 61.055 20.3087 60.457 18.898C59.8743 17.472 59.3683 16.1687 58.939 14.988C59.491 14.896 60.181 14.804 61.009 14.712C61.837 14.62 62.6497 14.5433 63.447 14.482C63.8303 15.6627 64.3363 17.081 64.965 18.737C65.5937 20.393 66.276 22.1333 67.012 23.958C67.518 22.9307 68.001 21.6503 68.461 20.117C68.921 18.5837 69.4193 16.736 69.956 14.574L72.739 14.896C71.9877 17.656 71.198 20.0173 70.37 21.98C69.5573 23.9273 68.668 25.522 67.702 26.764C66.7513 28.006 65.6857 28.926 64.505 29.524C63.3243 30.122 62.0057 30.4593 60.549 30.536ZM76.4785 27.615C76.0338 27.615 75.5661 27.5997 75.0755 27.569C74.6001 27.5537 74.1325 27.5307 73.6725 27.5C73.6725 25.8287 73.6725 24.1497 73.6725 22.463C73.6878 20.7763 73.6955 19.1587 73.6955 17.61C73.7108 16.0613 73.7261 14.6507 73.7415 13.378C73.7721 12.09 73.8028 11.009 73.8335 10.135C74.4315 10.0583 75.0141 10.0047 75.5815 9.974C76.1488 9.928 76.7008 9.905 77.2375 9.905C80.7641 9.905 83.4245 10.6333 85.2185 12.09C87.0278 13.5313 87.9325 15.6627 87.9325 18.484C87.9325 21.4587 86.9435 23.728 84.9655 25.292C83.0028 26.8407 80.1738 27.615 76.4785 27.615ZM77.7435 25.706C79.2001 25.706 80.3731 25.499 81.2625 25.085C82.1671 24.6557 82.8265 23.981 83.2405 23.061C83.6545 22.141 83.8615 20.922 83.8615 19.404C83.8615 16.9967 83.3708 15.172 82.3895 13.93C81.4235 12.688 79.9208 11.9673 77.8815 11.768C77.8661 12.182 77.8508 12.8107 77.8355 13.654C77.8201 14.482 77.8048 15.4327 77.7895 16.506C77.7895 17.564 77.7818 18.6603 77.7665 19.795C77.7665 20.9297 77.7588 22.0183 77.7435 23.061C77.7435 24.0883 77.7435 24.97 77.7435 25.706ZM90.8173 27.546C90.8173 25.1233 90.8403 23.015 90.8863 21.221C90.9323 19.427 91.032 17.886 91.1853 16.598H89.2303L89.0923 14.482H91.5073C91.7833 13.2247 92.1743 12.274 92.6803 11.63C93.1863 10.9707 93.8457 10.5183 94.6583 10.273C95.4863 10.0123 96.506 9.85133 97.7173 9.79L97.6253 11.745C96.9047 11.745 96.345 11.929 95.9463 12.297C95.563 12.665 95.2793 13.3933 95.0953 14.482H97.8323L97.6943 16.598H94.8653C94.8193 17.288 94.7887 18.0777 94.7733 18.967C94.758 19.8563 94.7503 20.8607 94.7503 21.98C94.7503 22.9613 94.758 23.9043 94.7733 24.809C94.7887 25.7137 94.8117 26.5953 94.8423 27.454C94.1983 27.4693 93.516 27.4847 92.7953 27.5C92.0747 27.5307 91.4153 27.546 90.8173 27.546ZM99.2353 13.125V10.02H103.145V13.125H99.2353ZM99.3273 27.546C99.312 27.04 99.2967 26.3577 99.2813 25.499C99.266 24.625 99.2507 23.6283 99.2353 22.509C99.2353 21.3743 99.2277 20.163 99.2123 18.875C99.2123 17.587 99.2123 16.2683 99.2123 14.919C99.9023 14.919 100.623 14.9267 101.374 14.942C102.141 14.9573 102.739 14.9803 103.168 15.011C103.168 16.1303 103.161 17.3033 103.145 18.53C103.145 19.7567 103.138 20.9527 103.122 22.118C103.122 23.268 103.115 24.3107 103.099 25.246C103.084 26.1813 103.069 26.9173 103.053 27.454C102.348 27.4847 101.673 27.5077 101.029 27.523C100.385 27.5383 99.818 27.546 99.3273 27.546ZM109.658 10.089C109.627 10.963 109.604 11.8217 109.589 12.665C109.573 13.5083 109.566 14.2903 109.566 15.011C109.566 17.4337 109.635 19.4193 109.773 20.968C109.926 22.5013 110.156 23.682 110.463 24.51C110.769 25.3227 111.176 25.8593 111.682 26.12L110.072 27.96C109.244 27.868 108.546 27.5997 107.979 27.155C107.427 26.695 106.982 26.0127 106.645 25.108C106.307 24.188 106.062 22.9997 105.909 21.543C105.771 20.0863 105.702 18.3077 105.702 16.207C105.702 15.333 105.709 14.3823 105.725 13.355C105.755 12.3123 105.786 11.2543 105.817 10.181C106.261 10.1503 106.79 10.1273 107.404 10.112C108.017 10.0967 108.768 10.089 109.658 10.089ZM119.164 27.615C117.922 27.615 116.803 27.3313 115.806 26.764C114.825 26.1813 114.043 25.3993 113.46 24.418C112.893 23.4213 112.609 22.2943 112.609 21.037C112.609 19.7797 112.885 18.6603 113.437 17.679C114.004 16.6977 114.771 15.9233 115.737 15.356C116.718 14.7887 117.83 14.505 119.072 14.505C120.237 14.505 121.28 14.7657 122.2 15.287C123.135 15.793 123.887 16.506 124.454 17.426C125.037 18.346 125.382 19.427 125.489 20.669L116.358 22.371C116.649 23.3677 117.109 24.1803 117.738 24.809C118.367 25.4223 119.072 25.729 119.854 25.729C120.575 25.729 121.288 25.4837 121.993 24.993C122.698 24.487 123.243 23.843 123.626 23.061L125.259 24.441C124.508 25.453 123.603 26.235 122.545 26.787C121.487 27.339 120.36 27.615 119.164 27.615ZM116.059 20.117C116.059 20.209 116.059 20.2857 116.059 20.347L121.418 19.611C121.311 18.6297 120.996 17.84 120.475 17.242C119.954 16.644 119.317 16.345 118.566 16.345C117.784 16.345 117.171 16.6823 116.726 17.357C116.281 18.0163 116.059 18.9363 116.059 20.117ZM133.45 27.615C132.821 27.615 132.108 27.569 131.311 27.477C130.513 27.3697 129.724 27.2393 128.942 27.086C128.16 26.9173 127.47 26.741 126.872 26.557L127.884 23.774C128.466 24.1113 129.11 24.4333 129.816 24.74C130.536 25.0313 131.242 25.269 131.932 25.453C132.622 25.637 133.212 25.729 133.703 25.729C134.362 25.729 134.845 25.5833 135.152 25.292C135.458 24.9853 135.612 24.6633 135.612 24.326C135.612 23.9273 135.443 23.5977 135.106 23.337C134.768 23.061 134.324 22.8233 133.772 22.624C133.235 22.4093 132.652 22.21 132.024 22.026C131.456 21.8573 130.889 21.6733 130.322 21.474C129.754 21.2747 129.233 21.0447 128.758 20.784C128.298 20.508 127.922 20.1783 127.631 19.795C127.355 19.4117 127.217 18.9517 127.217 18.415C127.217 17.725 127.462 17.0887 127.953 16.506C128.443 15.908 129.141 15.425 130.046 15.057C130.95 14.689 132.024 14.505 133.266 14.505C134.278 14.505 135.297 14.6353 136.325 14.896C137.367 15.1567 138.318 15.5247 139.177 16L137.889 18.185C137.045 17.6483 136.225 17.2113 135.428 16.874C134.646 16.5213 133.902 16.345 133.197 16.345C132.522 16.345 132.008 16.4907 131.656 16.782C131.303 17.0733 131.127 17.3723 131.127 17.679C131.127 17.9703 131.265 18.2157 131.541 18.415C131.817 18.599 132.185 18.76 132.645 18.898C133.12 19.036 133.626 19.174 134.163 19.312C134.761 19.45 135.374 19.6187 136.003 19.818C136.631 20.002 137.214 20.2397 137.751 20.531C138.287 20.8223 138.717 21.198 139.039 21.658C139.361 22.1027 139.522 22.6623 139.522 23.337C139.522 24.165 139.261 24.901 138.74 25.545C138.218 26.189 137.498 26.695 136.578 27.063C135.673 27.431 134.63 27.615 133.45 27.615Z" fill="white"/>
<defs>
<clipPath id="clip0_5209_38122">
<rect width="28" height="28" fill="white" transform="translate(0 3)"/>
</clipPath>
</defs>
</svg>
